<svg xmlns="http://www.w3.org/2000/svg" fill="none" viewBox="0 0 19471 28312" class="illustration">
  <path fill="#061308" fill-rule="evenodd" d="M17750.7 19666.9c-152.9 55.4-367.3 109.4-476.6 234.5-12.6-116.6-25.4-233.2-38.2-349.7 320.5-7.7 641.6-10.4 962.3-19.4-151.4 37-301 81.6-447.5 134.6Zm-704 7332.8c-110.3 1-220.9 8.7-331.1 13-212.3 8.2-424.6 16.3-636.9 24.3-433 16.2-866.1 31.9-1299.2 46.9-857.6 29.9-1715.4 57.4-2573.3 82.6-1715.6 50.5-3432.16 81.1-5147.59 138.8-475.91 16-951.8 28.4-1427.27 54.3-246.39 13.4-493.93 25-739.14 53.5-206.87 24.1-410.79 64.7-616.5 94.9 13.8-268 26.72-536.1 40.16-804.1 12.73-253.6 24.6-507.2 36.4-760.9 803.02 42 1606.98 59 2411.06 66.2 850.55 7.6 1700.85 28.7 2551.45 30.3 1683.93 3.4 3368.03-17.8 5051.83-34.7l1428.8-14.4 714.4-7.2c118.9-1.2 238.5 1.4 357.2-3.5 126.8-5.3 203.8-41.3 295.8-126.6 49.1-45.5 51.1-138.2 0-183.3-73.8-65.2-142.4-115.2-244.7-122.5-100.5-7.2-205.4 2.6-306.2 4l-663.4 8.7-1275.7 16.8c-850.5 11.2-1701 22.6-2551.4 35.5-833.5 12.8-1667.1 22.2-2500.47 43.2-850.88 21.4-1700.76 60.1-2551.44 87.4-905.49 29.1-1810.51 63.8-2713.95 131.8 21.71-470.1 41.7-940.4 60.52-1410.6 1793.84 97.6 3588.91 167.1 5385.75 170.1 1871.99 3.2 3743.89-28.8 5615.19-77.6 263.7-6.9 527.4-13.9 791-22.1 136.1-4.3 272.2-8.3 408.3-13.2 100-3.6 202.8-7.9 293.3-55.7 178.5-94.4 209.3-370.1-2.5-445.5-115.8-41.2-238.6-1-266.7 103.4-8.7.9-16.9 1.6-24.1 1.8-102.1 3.9-204.2 6.7-306.2 9.9-221.1 7.1-442.3 14.2-663.4 21.2-408.3 12.8-816.6 24.6-1224.9 35.4-833.7 22.1-1667.4 40.1-2501.3 54-1650.8 27.4-3301.59 52.9-4952.26 90.6-850.03 19.5-1699.82 44.7-2549.75 66.2 20.3-511.2 39.47-1022.3 56.75-1533.6 2.02-59.9 4.23-119.8 6.4-179.8 121.8 26.8 246.52 41.6 370.6 59.2 215.31 30.5 431.29 53 647.52 75.8 407.43 43 816.2 69.4 1225.14 91.9 833.73 46 1667.69 78.5 2502.29 103.9 1650.91 50.2 3303.91 61.2 4955.61 55.5 896.8-3 1799.1 8.8 2695.6-30.3 55.2 15.1 112.1 13.6 167.2-4.4 45.2 799.2 92.9 1598.2 139.9 2397.3 31.6 539.1 59.6 1080.1 98.4 1619.4-75.9-37.4-145.8-58.6-237.2-57.8ZM1504.77 18880.3c-157.28-77-330.74-147.2-469.59-256.2-151.773-119.2-189.045-259.1-142.404-446.1 3.481-14 7.577-27.9 11.212-41.8 1118.442 2.7 2234.042-46.5 3352.002-73.1 1135.82-26.9 2271.24-49.6 3407.37-56 2265.78-12.7 4531.24 38.4 6796.04 102 815.6 22.9 1631.1 45.4 2446.8 67.7-18.6 198.9-11.5 402.6-15.7 600-3.7 173.5-2.7 347.2-.1 520.8-426.7-1-853.3-10.2-1280-15-1056.5-11.9-2112.4 18.4-3168.5 42.6-2112.3 48.3-4225.2 86.3-6337.08 149.9-573.6 17.3-1150.88 26.4-1727.11 50.9-19.81-93.7-41.8-186.9-66.61-279.5-39.42-147.2-83.91-298.4-201.79-400.6-5.66-5-13.49-2.8-16.03 4.2-44.77 124.1-33.46 250.4-20.35 380.4 10.37 102.7 17.38 205.7 22.58 308.8-358.31 18.9-715.88 45.3-1071.57 85.1-101.71-50.3-203.46-100.4-305.37-150.3-404.54-198.1-809.21-395.9-1213.8-593.8Zm12984.53 3694.6c-834.5 6.7-1669 7.5-2503.5 2.1-1651.8-10.6-3303.09-51.2-4954.56-84-459.63-9.1-918.64-18.2-1378.34-18.2-238 0-476.78 1.6-714.52 11.9-149.63 6.5-301.33 7.5-450.26 25.4 17.97-481.1 36.68-962.7 36.09-1444.1 1575.51 238.6 3167.95 304.2 4759.02 351.1 1611.97 47.6 3224.27 72.2 4836.87 74.6 458.3.7 916.6-.3 1374.9-3.1 220.6-1.2 441.3-2.9 661.9-5 118.6-1.1 237.9 1.3 356.4-3.7 125.3-5.3 201-35 288.6-124.1 44.8-45.6 47-124.3 0-169.7-156.3-150.7-340.1-118-543.1-115.5-203.7 2.5-407.4 4.7-611.1 6.6-407.3 3.7-814.7 6-1222.1 7.1-797.7 2-1595.5-1.1-2393.2-9.2-1612.2-16.5-3224.05-52.3-4835.89-90.1-891.1-20.9-1782.02-15.1-2672.4 28.1-.33-79.9-1.07-159.9-2.64-239.8-5.86-302.7-35.35-605.4-81.48-904.7 436.36-1.5 872.69-10.8 1307.08-16.4 1056.29-13.5 2112.35-34.8 3168.51-56l3143.02-63c1047-21 2097.2-22.5 3142.9-79.1 564.4-30.5 1128.9-71.9 1693.7-93.7l3.3 155.5c13.6 636 38.5 1271.4 70.5 1906.7 15.5 305.3 31.7 610.6 48.4 915.8-8.1-.8-16.3-1.3-24.8-1.4-833.9-5.5-1669.3 29.2-2503.3 35.9ZM1284.49 17051.4c95.54-245.8 199.31-490 311.49-730.8 476.24 134.4 984.25 203.8 1475.75 249.9 523.24 49.2 1047.51 76.8 1572.9 87.6 1035.78 21.1 2071.57-28 3106.25-70.8 2128.19-87.9 4256.22-152 6386.32-156.2 594.9-1.1 1189.8 1.6 1784.6 8.3 297.5 3.4 594.9 7.4 892.2 12.5 153 2.6 305.9 5.5 458.9 8.7 67.7 1.4 136.2 6.4 203.9 4.3 90.5-2.7 156.6-29.9 240.6-62.7 96.4-37.5 153.3-198.7 32.9-252.2-120.2-53.4-216.6-84.6-350-87.5-144.4-3.1-288.9-6-433.3-8.7-263.4-4.8-526.8-8.8-790.2-12.1-535.4-6.7-1070.8-9.5-1606.1-9.4-1053.8.1-2107.6 12.6-3161.1 37.4-2114.95 49.7-4225.2 197.1-6339.41 260.4-582.74 17.4-1166.57 20.8-1749.33 3.4-564.46-17-1127.71-64.5-1691.48-84.5 194.74-410.5 415.07-810.2 663.68-1190.4 939.82 33.1 1877.61 8.6 2817.62-20 493.27-15 986.53-30.2 1479.75-47.2 246.62-8.4 493.24-16.9 739.86-25.3 119.06-4.1 238.12-8.2 357.18-12.2 128.25-4.4 263.24 3.8 387.8-29.9 22.55-6.1 40.47-19.1 53.96-35.8 331.56 170.6 682.24 305.1 1042.85 404.8 782.76 216.5 1624.62 297.7 2434.22 231.1 649.7-53.5 1297.2-214.3 1868.4-529.2 1290 118.8 2598.1 63 3890.8 54.5 123.5-.8 174.9-113.9 154.3-207.2 414.8 894.1 689.7 1863.4 946.9 2806.2 159.9 585.9 302 1175.5 437.4 1767.2-5.7.5-11.3 1-16.9 1.6 15.7-64.9-19.6-141.3-108.3-143.3-523.2-12-1048.1 18-1571.5 22.9-14.7-131-29.4-261.9-44.9-392.8-21.2-178.2-46.5-356.1-68-534.3-7.8-64.6-15.1-127-24-188.4 414.4 11.2 828.8 22.6 1243.2 33.6 268.9 7.1 268.4-409.4 0-417.6-2277.2-69.8-4554.5-140.2-6832.4-178.9-2279.37-38.7-4566.56-62.5-6844.14 54.3-1241.17 63.7-2479.26 148.8-3704.987 358.8 95.197-332.3 228.007-660.3 352.317-980.1Zm1938.32-3164.7c41.24 30.9 54.45 50.4 116.1 61.2 66.83 11.7 135.57 15.5 203.05 22.1 144.37 14.1 289.11 19.4 433.98 26.3 289.26 13.7 578.51 28.2 867.98 37 574.62 17.5 1161.55 42.2 1735.91 16.6 140.51-6.2 204.43-122.1 191.66-227.6 107.72 133.4 225.5 258.6 350.94 372.8 201.66 183.5 419.36 346.2 648.85 489.7-148.88 5.5-300.48 24.1-440.99 30.2l-714.36 30.6c-501.79 21.6-1003.53 44.7-1505.25 68.2-928.55 43.3-1853.92 97.4-2778.94 185.9 264.18-397 560.11-771.5 891.07-1113Zm15112.79 1928.4c-392.3-1076.9-898.1-2195.5-1808.3-2935.2-467.9-380.2-989.2-643.2-1579.5-767.8-18.1-3.8-25.3 22-7.6 27.8 1020.8 334.9 1776.3 1221.1 2287.3 2129.3 92.6 164.6 178.4 333.1 259.5 504.2-26.4-32.2-66.8-53.7-121.5-52.8-1207.1 20.3-2428.5-.1-3632.9 117.8 30.7-20.5 61.5-40.9 91.6-62.5 329.1-234.4 625.1-521.4 869.8-846.3 147.4 37.4 302.6 46.5 453 60.8 200.7 19.1 402.8 27.8 604.2 38.6 201.1 10.8 402.9 11.8 604.2 16.7 138.3 3.3 408.7 26.3 408.9-185.3.1-211.8-270.6-189.4-408.9-186.6-201.3 3.9-403.1 4.5-604.2 14-192.8 9-386.8 16.3-579 33.5-117.3 10.5-237.9 17.5-355.8 36.1 191.8-286.3 344.6-598.1 446.5-927 10.3-33.1 13.7-64 12-92.7 43.2-45.6 70.8-108.1 70.8-165.4 0-136.3-106.1-216.1-230.2-230.3-491.1-56.1-1032.1-136.1-1427.9-459-178.6-145.7-322.3-318-457.5-503.3-286.1-518.6-231.8 347.3 168.6 765.3 364.4 380.4 859.3 522.9 1361.6 606.1-207.1 591.5-548.9 1111.1-1028.8 1519.7-534.8 455.3-1211.7 698.7-1901.8 790.6-744.6 99.2-1525 51-2257.2-110.8-705.35-156-1395.35-434.9-1969.43-879.9-289.62-224.6-556.06-489.3-788.21-772.5-191.61-233.8-338.53-494.6-503-745 613.63 168.2 1355.54-61.6 1869.54-386.2 302.76-191.2 567.99-429.9 785.89-713.8 107.46-140.1 203.08-287.9 281.92-446 41.01-82.2 77.87-166.8 111.79-252.2 20.97-52.7 41.52-106.9 41.52-164.9-.13-42.7-10.88-82.4-32.28-119.3-43.98-46.7-52.73-60.2-26.26-40.6-43.19-88.4-168.03-110.9-247.9-65-29.77 17.1-99.79 50.2-134.22 105.6-23.27 37.4-35.79 82.2-50.68 123.2-23.53 64.8-47.23 128.9-76.77 191.3-68.61 145-150.88 283.4-244.73 413.5-171.54 237.7-392.02 452.7-632.19 620.5-252.13 176.2-523.86 320.2-818.58 410.1-311.28 95-619.39 123.3-940.55 158.1-3.43-4.7-6.76-9.5-10.19-14.3-6.2-8.5-19.59-5.8-20.12 5.5-.26 5.4-.13 10.7-.28 16.1-45.8 21.5-49.59 86 1.43 110.8 18.92 297.1 147.12 589.6 286.81 846.7 58.19 107.1 123.92 210.8 195.14 311.1-21.07-8.1-44.75-13.2-71.32-14.2-574.57-22-1161.34 6.4-1735.91 27.4-281 10.3-561.69 26-842.46 41.1-144.71 7.7-289.78 12.6-433.98 27.6-72.11 7.5-144.66 13.4-216.39 24.2-5.2.8-10.03 1.6-14.59 2.4 177.45-174.7 364.5-340.3 561.97-494.7 647.81-506.8 1391.82-919.7 2185.64-1144.2 7.52-2.2 6.42-15-1.9-14.2-1578.89 161.5-2894.08 1156.4-3814.11 2405.7-510.49 693.2-897.67 1460.6-1230.84 2251.8-167.933 398.9-326.825 804.8-459.888 1216.8-67.633 209.4-98.121 431.4-1.255 636.8 74.288 157.6 211.371 274.7 355.057 367.8 9.549 6.2 19.379 11.9 29.029 18-146.886 511.7-245.288 1036.8-339.697 1560.3-102.549 568.7-192.018 1139.8-268.866 1712.5-153.593 1144.8-271.246 2292-322.623 3446.2C14.81 26054 5.313 26373.5 1.166 26693c-2.074 159.8-1.163 319.7 1.024 479.5 2.483 178.9-21.734 380.7 69.321 540.3 121.672 213.3 357.976 139.9 461.907-5.9 1.511 1.9 3.072 3.9 4.608 5.9 9.421-18.5 17.305-37 24.037-55.5 11.187-24.6 18.483-50.3 21.145-76.5 19.583-99.1 12.211-199.7 11.417-307.3-1.152-151.5-.281-302.9.154-454.3.845-286 4.096-571.8 12.236-857.6 16.307-571.6 48.152-1142.6 91.696-1712.7 86.524-1132.5 214.16-2259.8 323.389-3390.1 55.6-575.5 122.67-1152.4 134.24-1731 134.83 71 273.96 135.3 408.54 203.8 249.69 127.1 499.35 254.2 749.02 381.3 242.14 123.3 484.64 245.8 727.24 368.2 244.62 123.4 487.61 286.5 762.82 316.9 147.12 16.2 200.36-182 113.69-274.5-113.2-120.9-263.52-196-414.63-266.3 200.77 7.3 401.8 11.3 602.93 12.8 2.77 253.1-6.17 506.7-18.86 759.2-31.23 619.3-74.65 1237.6-115.76 1856.3-85.45 1286.2-168.16 2573-232.7 3860.4-15.79 315.4-31.61 630.6-47.43 945.9-7.68 153.3-18.36 306.8-22.71 460.2-4.86 172.2-.64 387.9 158.66 494.2 112.54 75 233.65 39.7 318.12-63.5 112.97-138 112.79-338 121.88-507.4 2.1-39.1 3.97-78.2 5.99-117.4 172.54 22.4 343.82 53.3 517.1 70.2 211.65 20.6 424.63 32.8 637.2 38.2 433.47 11.2 866.25 15.2 1299.84 15.2 858.08 0 1716.08-14.7 2574.02-28.5 1716-27.7 3431.7-75.8 5147-129 475.6-14.8 951.1-30.3 1426.7-46.4 246.2-8.4 492.4-17 738.7-25.7 233.1-8.3 487.7 21.8 692.8-99.2 6 73.7 12 147.3 18.5 220.9 12.3 139.4 110.3 259.2 259.2 259.2 139.9 0 260.1-118.6 259.2-259.2-52.3-1271.8-165.3-2543.8-254.9-3813.4-82.3-1166.3-159.4-2334.1-277-3497.6 33.4 21.6 74.2 35 122.3 35.2 153.6.6 307-94.7 450.8-145.3 145.1-51.1 292.5-95.4 442-131.6 88.4-21.5 177.3-39.5 266.4-54.9-10.8 182.1-8 365.7-11.4 547.1-5.2 278.8-13.9 557.5-20.7 836.2-13.3 549.3-18 1098.5-28.5 1647.8-21.2 1107.2-56 2213.9-115.2 3319.8-16.2 303.9-34.5 607.6-54.8 911.3-10.7 160.2-22 320.5-33.8 480.6-11.6 157.5-38.7 324.7 20.5 475.7 1.9-1.1 3.8-2.2 5.6-3.3 41.4 130.1 223.1 192.3 309 44.4 133.8-230.6 102.9-561 118.3-820.3 16.5-278.3 31.3-556.7 44.4-835.2 26.2-557.1 44.4-1114.3 54.9-1671.9 21.1-1115.4 17.5-2232.3-50.6-3346.1-18.7-304.5-44.8-608.5-71.6-912.3-20.1-227.8-31.2-461.8-66.7-689.7 173.7-25.6 348.9-40.5 525.7-44.9 171.1-4.3 281.5-158.6 245.2-321.9-284.1-1279.5-679.3-2537.4-1127.7-3768.2Z" clip-rule="evenodd"/>
  <path fill="#061308" fill-rule="evenodd" d="M15128.6 4027.03c-9.7-55.58 66.7-97.02 96.3-40.7 214.7 409.09 300.7 882.88 376.8 1334.75 76.8 456.63 127.5 915.16 130.3 1378.71 2.2 356.56-30.1 717.25-90.8 1074.07l7.4 25.4c13.6 46.64 27.4 93.25 41.3 139.82l20.9 69.83c40.5 134.09 78.9 268.79 120.5 402.55 86.9 279.15 178.4 559.1 290.4 829.25 109.3 263.62 242.3 517.84 400.3 755.45 152.4 229.04 394.1 422.74 501.4 677.14 37.4 88.6-17.9 205.8-121.2 191.7-6.7 8.1-17 14-30.9 15.2-80.2 7-155.3.3-235.4-7.2-44.7-4.2-44.6-65.4 0-69.6 34-3.2 67.1-6 100.2-7.9-228.9-135.9-392.2-401.3-522.7-618.6-167.8-279.09-294.5-584.08-397.8-892.49-106.1-316.66-181.2-639.93-241.6-968.16-6.9-37.78-13.5-75.59-19.9-113.45-76.2 324.93-174.5 643.92-290.9 950.49l-16.3 42.67c-268.3 697.14-631.8 1400.94-1236.3 1861.74-27.4 20.9-55.5 40.8-83.7 60.2l34.4 19.7c34.2 19.6 67.9 38.4 100.9 53.8 122.1 57.1 254.8 100.7 385.9 131.5 271 63.8 555.5 45.5 831.9 54.4 90.6 2.9 142.2 139.1 49.5 183.4-305.3 145.6-635 114.7-950.1 12.2-155.9-50.7-302.3-121.8-437.6-214.5-56-38.3-121-85.6-175.8-140.3-604.6 339-1356.1 376.9-2029 255.7-349.6-63.1-688.5-178.1-986.6-375-286.8-189.2-491.2-428.9-637.1-739.4-13-27.5 23-61.8 45.1-34.9 458.4 557.9 1247.3 790.7 1941.3 835 370.3 23.7 749.1 4 1105.1-107 337.7-105.4 627.5-298.5 869.5-555.3 490.4-520.63 784.3-1228.84 995.3-1902.84 229.6-733.23 339-1504.68 361.5-2272.03 11.4-388.77-2.9-780.82-63.9-1165.29-60.4-381.29-172.6-750.33-238.6-1130.01ZM8255.71 723.982c32.47-16.537 55.33 26.495 27.79 47.665-571.62 439.303-1083.54 996.333-1497.87 1585.903C6021.5 3444.92 5531.45 4703.21 5305.78 6010.7c-133.24 772.14-168.03 1555.97-154.72 2338.41 5.27 310.81 22.98 620.67 42.69 930.63l22.25 343.59c10.33 160.07 18.95 318.79 12.28 479.67l-1.81 37.1c-10.58 187.2 7.79 375.9-39.06 558.5-24.04 93.6-155.83 108.4-203.54 26.6-9.35-16-18.09-32.5-26.57-49.1-111.84 182.7-256.68 346.1-417.38 492.1 76.82-16.4 154.37-26.8 233.99-17.3 126.22 15.2 239.44 64 319.54 149.6 79.53-35.9 161.29-60.6 255.33-61.1 69.25-.4 121.18 81.7 81.66 142.6-78.83 121.7-188.83 189.9-313.82 257.3-88.58 47.7-194.3 6.9-227-87.6l-1.88-5.7c-36.81-119.5-232.59-100.2-324.96-81.7l-27.18 5.5c-171.94 35.9-339.84 81.8-515.01 34.4-112.98-30.5-142.51-200.9-33.59-257.5 344.09-178.7 632.95-418.7 929.81-659.7-65.55-161-102.77-341-145.68-504.7-60.42-230.51-78.07-478.51-99.88-715.28-41.46-450.16-57.27-905.2-52.83-1357.13 15.05-1526.41 275.55-3057.56 940.97-4439.77 291.52-605.49 674.49-1165.77 1127.17-1661.7 450-493.01 975.59-882.32 1569.15-1184.438ZM7722.97 8199.22c-17.65-24.53 16.81-56.96 40.97-41.06 523.19 344.38 886.26 867.32 1120.53 1441.78 231.9 568.76 374.28 1265.36 145.58 1858.46-36.4 94.4-210.75 129.5-228.6 0-79.73-578.5-92.12-1157.7-267.43-1720.07-173.81-557.47-471.2-1067.96-811.05-1539.11ZM7317.3 10077.1c2.87-10.2 19.52-8.5 18.81 2.5-13.11 204-22 410.5-47.59 613.3-12.44 98.6-28.9 196.5-42.89 294.9-14.36 100.8-12.19 202.7-70.71 288.8-77.56 114.2-283.6 82.1-276.68-75.1 4.78-108.4 54.49-178 101.06-273.1 29.87-61 55.9-124.1 80.99-187.4l37.3-95c74.14-188.5 145.07-373.7 199.71-568.9Zm-936.85-540.35c3.17-16.05 28.99-12.19 28.23 3.81-13.98 288.71-46.47 574.14-97.35 858.64-23.21 129.7-50.26 258.6-78.87 387.2l-12.36 55.1c-30.6 135.4-50.34 294.6-118.91 415.6-68.51 120.9-231.18 33.1-210.1-88.8 24.62-142.3 111.76-285.4 162.41-422.1 46.75-126.1 87.62-254.5 125.81-383.5 80.39-271.5 146.32-548.13 201.14-825.95Zm1744.62 801.55 6.09-6.3c23.81-25.9 59.32-8.7 70.69 18.7 46.54 112.2 23.24 244.4 19.92 363.5l-.62 25.9c-2.47 120.6-.75 233.6-55.32 344.9-66.27 135.2-240.87 51.3-254.38-69-14.76-131.3 47.18-259.7 87.19-382.7 25.41-78.1 43.93-159.3 82.58-230.2-33.05 5.7-66.06 17.1-96.28 25.4-13.53 3.6-18.64-16.3-5.72-20.9 49.97-17.7 106.37-31 145.85-69.3Zm6965.03 397.9c-15.9-17.9 4-41.7 24.7-32 248.8 116.4 481.5 192.2 756 217 119 10.7 119.7 198 0 187.2-286.5-25.9-586.8-154.6-780.7-372.2ZM6336.51 6801.85c219.05-493.77 912.03-931.8 1376.72-472.6 8.71 8.57-.16 27.28-12.8 22.04-289.04-120.04-642.89 32.64-842.93 250.99-158.71 173.21-254.07 395.61-273 630.02-18.93 234.61 37.04 479.49 192.53 660.96 81.56 95.21 191.71 185.31 321.33 196.76 130.87 11.54 239.94-80.82 363.66-105.91 93.26-18.89 163.66 39.76 172.81 131.89 20.15 203.33-181.86 339.8-356.97 372.95-188.36 35.63-380.62-3.3-542.93-105.6-524.23-330.37-637.32-1042.92-398.42-1581.5Zm4918.59-4839.79c95.2-91.23 257.2-.53 222.1 129.61-74.7 276.98-233.6 511.08-409.6 733.28-169.4 213.78-350.8 419.21-545.2 610.41-193.2 189.94-403.1 365.7-623.65 522.7l-66.43 47.16c-156.33 110.43-321.92 222.11-496.91 301.65-42.25 364.79-124.91 724.71-249.98 1069.3-120.45 331.81-273.71 652.49-459.43 952.58l-26.66 42.98c-170.66 274.08-375.86 580.38-665.45 730.62-8.69 4.53-17.4 7.3-25.98 8.91 64.78 43.29 119.53 97.74 152.07 175.97 35.66 85.65-38.88 166.47-110.33 194.75-151.1 59.83-298.49-41.44-434.31-149.47-5.75 12.95-11.17 26.04-15.82 39.22-30.37 86.27-39.31 174.43-117.63 231.67-37.22 27.21-83.07 2.87-106.5-27.95-76.78-101.12 2.71-238.87 70.23-321.5 9.35-11.42 19-22.27 28.94-32.69-28.54-21.02-56.38-39.65-83.35-53.96-158.61-84.17-393.73-99.1-485.05 87.24-7 14.31-28.99 6.91-28.99-7.89.23-228.88 234.19-353.19 437.22-370.08 148.34-12.34 291.82 39.8 425.34 100.5l24.92 11.47c49.68 23.11 100.87 44.93 149.87 69.32-7.97-21.07-7.84-45.85 4.7-70.42 153.55-300.51 417.22-544.88 607.38-823.19 188.57-276.11 350.48-571.59 479.71-880.14 125.42-299.48 223.69-608.36 292.41-923.4-22.63 4.68-48.15-15.52-46.54-39.19 3.83-57.29 31.8-108.9 80.92-130.89 54.11-296.33 81.72-597.69 80.11-901.47-.12-23.55 33.93-22.7 35.92 0 23.91 270.1 25.85 542.83 5.75 813.97 127.77-117.81 262.52-229.8 385.55-350.73 185.12-181.96 364.17-368.78 536.97-562.54 176.3-197.67 342.9-402.62 495.2-619.46l79.7-113.73c122.6-174.33 248.6-346.85 402.8-494.61ZM11014.7 15.88c1051.3-65.763 2174.1 63.716 3118.5 558.261 518.6 271.579 919.5 682.059 1205.9 1192.889 171 305.03 300.8 642.81 349.9 990.08 50.5 356.83-8.8 675-236.1 958.63-90.3 112.64-242.4-13.18-220.2-128.43 136.2-705.09-84.6-1401.74-476.1-1985.47-568.2-847.073-1560.4-1223.351-2526.4-1391.203-474.6-82.429-956-116.885-1437.5-100.118-367.1 12.8-743.7 47.077-1092.11 170.848-14.69 5.222-20.54-17.715-6.39-23.116 415.6-159.046 879.5-214.775 1320.5-242.37Zm1559.2 1594.37c54.1-34.37 120.3.9 138.9 56.68 65.6 196.65-71.8 456.46-163.8 626.64-104.1 192.58-237.9 372.64-376.1 541.77-276.5 338.27-639.8 620.52-1038.6 797.92-24.4 10.88-52.9-18.66-30.5-39.55 308.6-287.91 588.3-596.58 830.5-942.86 118.9-170.16 218.2-349.65 313-534.04 84.8-165.01 164.5-403.6 326.6-506.56Zm1768.2 231.66c34.6-121.03 231.6-100.42 223.4 30.31-21.1 337.73-180.1 676.73-352.8 962.96-177.9 294.72-403.2 557.36-661.4 784.19-12.7 11.19-30.2-6.04-18.6-18.66 222.8-244.42 402.7-522.83 536-825.82 133.1-302.55 183.3-618.24 273.4-932.98Zm-979.2-54.68c37.7-105.24 218.1-97.43 207 28.08-30.4 345.02-232.4 706.61-419.6 991.58-198.6 302.35-452.1 568.7-735.4 792.41-10.6 8.37-25.5-5.5-15.2-15.28 254.5-240.25 460.8-517.77 624.2-827.31 83.3-157.94 153.3-322.42 208.5-492.32 51.1-157.17 75.1-322.23 130.5-477.16Z" clip-rule="evenodd"/>
  <path fill="#061308" fill-rule="evenodd" d="M12814.5 9444.12c-172.1-70.2-325.6-187.3-437.9-336.89-39-52-49.1-106.92-41-157.14 9.2-56.48 42.7-107.67 88.2-142 45.7-34.44 102.9-51.42 158.2-42.76 48 7.52 95.8 33.82 133.7 88.36l7.9 10.91c66.7 90.28 153.7 164.36 252.8 212.11 95.5 46.02 202.3 67.5 312.8 55.01 210.5-23.78 355.6-137.63 509.9-292.24 19.1-19.52 38.2-39.65 57.4-60.11 12.2-18.54 29-30.46 47.7-36.71 20.8-6.95 44.3-6.55 65.8.95 20.8 7.25 39.3 20.97 51.7 39.24 11.9 17.36 18.6 38.8 16.4 63.47-14.1 160.23-97.9 303.23-216.9 415.51-132.1 124.7-307.3 210.97-472.2 241.23-181.7 33.33-366.9 9.45-534.5-58.94Zm620.2-2471.82c193.3 117.5 487.8 391.49 279.9 682.79-244.8 256.84-597.2-37.65-770.9-170.83-161-103.23-342 162.25-192.6 282.78 1255 929.12 1764.3-764.01 781.4-932.89-108.3-18.61-148.5 101.8-97.8 138.15Zm-2248.9-1080.8c21.4-265.11 425.1-325.31 465.3-62.98 35.9 235-6.4 450.88-112.2 662.45-101.2 202.13-355.4 107.83-374.6-76.23-25.8-246.72 8.2-358.33 21.5-523.24Zm3073.5-117.37c56.3-73.73 137.6-124.05 234.9-95.61 304.3 88.9 214.6 520.83 107.8 731.08-58.1 114.17-245.8 143.12-330.6 42.59-138.2-163.93-204.4-491.32-28.7-652.8 4.8-8.34 10.1-16.76 16.6-25.26Zm-2724.7-1042.67 48-8.41c148.7-25.72 333.6-50.42 438.7 69.1 55.8 63.39 75 181.19 0 241.86-131.9 106.75-277.7 65.38-435.7 74.42-130.3 7.47-255.4 29.03-380.9 64.89-275.2 78.67-499.5 222.28-734.6 379.97-30.8 20.68-62.3-18.77-47.6-47.62 135.7-265.79 398.7-484.12 662.1-617.21 140.6-71.04 294.4-129.97 450-157ZM13982 4612.4l36.7 7.52c400.3 83.68 920.4 250.82 1110 644.01 7.2 55.59-.4 67.51-6.6 75.29l-2.1 2.59c-5.1 6.65-9.2 15.82-33.3 23.38-6.7-1.59-13.4-3.28-20.3-5.07-86.9-22.77-155.6-54.14-222.2-86.69l-72.1-35.55c-83.7-41.05-168.2-80.61-257.7-109.81-191-62.31-387.5-106.2-587.1-129.63-43.2-5.08-84.8-19.67-117.7-44.69-31.2-23.74-55-56.62-65.9-100.31-14-56.55-10-99.36 20.3-150.38 22.9-38.31 55.5-64.87 93-80.12 38.2-15.54 81.7-19.21 125-10.54Z" clip-rule="evenodd"/>
</svg>