<svg xmlns="http://www.w3.org/2000/svg" fill="none" viewBox="0 0 19419 27502" class="illustration">
  <path fill="#061308" fill-rule="evenodd" d="M565.364 26988.7c18.064 12.8 3.803 13 0 0Zm-70.12-52.3c1.189.9 2.615 1.9 4.041 2.8-14.262-1.2-23.056-15.7-4.041-2.8ZM19189.8 25265.1c-79.4-339.1-158.5-678.6-237.9-1017.8-165.7-709.2-331.6-1418.7-497.3-2128.3-324.4-1387.6-648.6-2775.3-973.1-4162.9-164.7-705.3-352.9-1405-522.9-2109.1-148.8-617-271.7-1248.8-527.2-1832.8-260.8-596.2-718.8-1094.4-1325.4-1347-510.8-212.5-1085.3-330.2-1641.5-357.1 69.9-85.5 86.3-212.2-15.7-315.6-1059.4-1073.4-1620.7-828.9-3046-972.4-310.7-30.9-619.21-80.6-926.07-136.7-191.11-34.9-424.05-63.9-591.86-178.7-2.64-57.3-4.04-114.8-5.23-172.1-2.4-99.6 2.85-177.8-50.15-265.3-.74-.9-1.9-1.2-3.09-.7-65.6 34.2-112.67 92.7-147.16 162.1-62.96-16.9-130.73-14.5-189.41 10-82.98 34.4-144.76 74.1-209.17 137.8-95.8 94.4-123.84 204.7-151.89 331.4-20.21 90.8-32.8 155.7-68.93 216.5-7.85 13.1-16.17 26.9-25.2 39.5-3.33 3.3-9.51 9.7-19.99 20.7-10.43 10.4-20.89 20.6-31.59 30.9-6.18 6.1-36.6 30.9-31.87 27.5-131.68 98-250.74 134.8-413.33 181.6-349.88 100.8-708.32 166.7-1057.02 273.6-381.02 117-753.73 259.1-1118.11 420.5-1417.37 627.7-2685.94 1621.5-3550.9 2915.8C804.483 16543.9 433.682 18374.9 249.945 20150 48.856 22095.5 62.88 24063.1 18.907 26016.7l-16.401 733.1c-5.467 238.9-20.204 496 191.818 657 188.967 143.1 419.054 98.1 628.224 33.7 223.912-68.7 451.852-123.3 682.652-162.6 435.46-73.4 884.7-82.2 1323.96-39.4 236.03 23 524.82 110.5 718.78-74.4 69.64-66.6 109.81-151 142.62-239.6 40.88-109.4 88.66-216.6 136.2-324 39.21-88.4 78.2-177.3 117.18-266 63.22 276.9 126.45 553.9 189.68 831 24.96 109.1 138.81 117.4 207.5 64.4 112.2 60.2 259.57 59 386.97 73.7 204.89 23.5 411.42 31.6 617.29 38.7 403.36 13.8 806.73 21.4 1210.33 26.7 822.9 10.4 1645.79 6.6 2468.45 3.1 1629.84-7.2 3259.54-40.4 4888.64-82.8 458.7-11.8 917.5-22.5 1376.2-33.7 229.2-5.5 458.5-10.9 687.9-17.4 68.7-1.9 138.1-8.3 203.3-23.5h.2c29 25.4 64.6 44.9 107.2 56.6 152.3 41.8 303.7-51.4 349.4-198.5 21.2-67.5 35.9-129.3 30.6-194.9 7.9-49.4 15.8-98.9 23.6-148.3 254.3 160.9 559.5 204.6 860.7 184.7 340.6-22.6 681.2-84.9 1019.2-131.2 317.3-43.5 831.7-29.5 846.9-467.8 5.5-160.5-62.3-340.4-98.4-494.9-43.3-185.2-86.5-370.1-129.8-555.3Z" clip-rule="evenodd"/>
  <path fill="#061308" fill-rule="evenodd" d="M7008.71 228.233C7277.47 53.766 7622.42-11.172 7939.07 1.545c168.88 6.774 326.55 48.965 482.24 112.334 144.31 58.757 271.54 143.162 412.05 207.482 8.54 3.898 2.09 15.902-5.98 14.262-166.39-33.653-361.75-13.324-530.47 10.772l-16.78 2.42c-165.82 24.126-334.56 36.605-498.01 74.897-301.09 70.524-581.14 224.193-746.39 491.479-215.77 349.079-271.09 800.929-248.01 1203.679 11.67 203.77 51.76 404.25 114.19 598.51 37.47 116.59 124.54 233.89 165.22 356.23 30.96-57.9 62.91-115.23 95.99-171.87-150.73-71.19-193-269.05-200.8-447.6-23.22-22.49-38.17-55.03-38.66-84.91-1.33-80.31 17.52-153.02 49.59-219.55 18.31-188.45 57.12-376.32 123.91-552.9 262.17-693.284 953.8-1318.132 1738.12-1256.403 215.56 16.971 425.31 108.697 536.77 303.701 89.54 156.592 90.13 345.487 28.36 512.042-18.31 49.44-42.12 94.08-70.11 134.79 84.75-21.53 169.64-42.19 254.39-62.65 294.02-71.03 589.51-126.67 890.61-157.62 410-42.12 828.4 21.61 1204.1 185.59 103 26.55 205.6 55.08 307.5 85.55 448.5 134.01 908.6 309.05 1270.9 614.94 166.7 140.73 286 304.46 382.8 484.25 362.6 324 709.4 691.28 954.2 1111.43 504.3 865.65 624.8 1936.44 645.5 2920.56 19 904.04-60.2 1817.36-229.3 2705.64-76.7 403.13-200.8 777.78-451.8 1108.4-279.5 368.2-652.3 658.2-1070.6 852.8-851.7 396.3-1905.7 453.9-2733.5-37-249-147.6-24.8-532.5 226.7-388.7 817.2 467.4 1860.2 360.6 2646.6-134.8 332.1-209.3 618.4-495.5 800.3-845.99 132.8-256 189.8-549.54 239.1-835.37l26.2-152.89c152.4-878.94 221.3-1780.49 184.6-2672.15-36.6-889.45-177.3-1852.82-680.1-2608.99-265.2-398.85-603.3-748.26-958.5-1066.87-25-22.39-50-44.68-75-66.91-138.8-83.59-282.7-156.59-424.3-218.89l-30.1-13.05c-81.4-34.79-195.3-79.73-301-115.66-151-51.37-304.5-97-458.7-138.12-80.7-21.56-161.9-41.34-243.3-60.24 28.4 26.08 56.6 52.39 84.3 79.37 131.2 127.81 235.4 279.69 359.8 413.71 14.1 15.11-3.7 37.17-21.5 27.97-189.3-97.31-399.2-160.3-596.8-239.14-186.8-74.54-368.4-160.35-551.9-242.59-46-20.63-91.8-42.67-137.5-64.46-180.5 1.85-360.9 6.11-541 16.4 217.7 155.28 416.5 338.81 581.2 540.06 13.6 16.57 1.2 43.12-21.7 37.25-344.7-88.46-672.6-218.47-1000.22-354.71l-156.77-65.39c-115.22-5.85-230.62-8.58-346.04-6.87l-55.93.93c-121.17 2.32-242.1 7.13-362.19 25.52-28.56 4.35-56.54 8.49-84.34 12.29-169 69.12-331.62 152.46-477.94 262.3l38.11-2.26c231.36-13.19 467.25 6.77 691.3 66.62 435.34 116.36 806.81 396.52 1077.12 753.75 8.1 10.7-7.6 25.58-18.2 18.31-340.11-233.3-734.54-350.82-1138.64-414.64-195.33-30.87-396.49-41.5-593.69-26.12-163.29 12.72-332.19 70.36-494.64 42.38-44.29 55.27-86.82 112.19-127.76 170.38 21.52-1.38 43.13-2.64 64.88-3.66 233.3-10.98 470.89 4.02 698.69 57.83 455.01 107.56 835.23 381.29 1183.05 681.8 6.87 5.94-2 16.54-9.44 12.27-377.21-218.16-815.64-283.36-1242.94-322.72-215.18-19.82-432.78-28.81-648.43-11.6-98.79 7.87-196.49 24.2-295 34.35-7.97.83-16.25 1.04-24.45 1.42-71.4 134.92-136.13 272.26-194.52 409.19 178.22-47.92 370.51-73.07 554.53-60.66 373.76 25.22 744.49 196.96 1042.86 416.61 9.34 6.87 4.13 25.17-8.56 20.37-324.77-122.96-646.71-123.96-985.63-76.52-158.9 22.25-316.18 52.44-469.69 99.79-77.18 23.82-153.49 49.8-226.73 84-33.26 15.5-65.63 33.56-98.36 50.6-26.19 89.09-49.6 179.01-70.71 269.48 553.98 31.3 1075.88 293.33 1530.08 594.06 10.98 7.28 4.12 27.53-9.44 22.39-271.14-102.51-566.09-149.91-853.68-177.5-251.47-24.13-498.25-11.01-748.27-3.97-13.4 95.19-24.24 190.67-32.09 286.35 40.2 11.29 79.65 23.46 117.57 34.89 124.74 37.55 249.24 88.11 365.63 146.73 236.44 119.06 428.02 280 620.78 458.91 10.06 9.34-.42 29.74-14.06 24.2-223.75-90.63-468.22-148.68-703.75-200.04-121.89-26.58-243.83-51.11-366.58-73.62-11.88-2.18-23.96-4.01-36.01-5.82-1.16 218.12 11.15 436.3 38.29 652.7l5.26 40.56c14.71 109.53 2.68 215.46-69.69 291.12 100.1-66.67 214.62-112.85 341.54-130.56 334.22-46.61 643.71 87.21 854.03 346.06 9.84 12.09-5.34 27.97-17.29 17.32-204.1-182-518.64-214.21-772.13-128.52-234.68 79.32-411.1 268.69-481.81 505.65-75.14 251.81-40.73 529.82 96.3 754.29 68.26 111.84 166.86 211.81 290.25 260.99 15.23 6.09 30.74 11.15 46.42 15.55 74.48-27.29 154.63-14.93 231.22 19.65l9.93 4.69c48.86-.29 97.51-1.79 144.79-1.36 92 .88 136.24 98.76 97.62 171.62 21.9 40.19 37.93 85.35 57.17 124.74 34.75 71.07 71.13 141.69 107.71 211.85 51.73 59.47 101.13 121.04 134.67 192.82 13.76 29.45 26.76 61.35 36.72 93.34 28.75 43.33 57.97 86.43 87.9 129.31 96.78 138.53 198.7 269.76 311.72 395.52 67.93 75.59 146.09 143.07 218 215.52 21.8 2.9 43.17 17.78 49.91 39.17l5.88 20.46c23.18 26.17 45.35 53.13 65.33 81.84 44.3 63.68 32.16 128.31-6.76 174.81 61.64 385.5 19.66 795.6-62.81 1169.3-53.32 241.5-115.59 482.8-199.15 715.7-42.48 118.5-93.93 232.2-165.01 336.2-38.97 57-89.73 123.4-146.66 177.7-8.66 63.1-19.9 125.7-36.01 187.1-190.96 727.2-972.65 948.7-1627.16 1041.5-126.32 17.9-251.35-12.6-320.16-130.5-15.89-27.3-26.56-56.6-32.3-86.8-28.51-7.6-55.93-21-80.53-40.2-4.1 45.6-8.85 91.3-14.85 137.5-14.97 115.6-170.63 150.4-209.65 28.5-164.66-514.4-254.11-1056.8-366.94-1585.4-112.59-527.5-238.33-1052.2-354.67-1578.9l-147.31-664.71c-359.45-1627.64-696.12-3276.08-613.48-4950.09 45.11-913.79 212.42-1825.2 570.54-2669.63 298.31-703.45 801.78-1493.758 1615.08-1637.586 5.6-.975 10.58-.404 15.23.784 96.59-125.859 211.98-236.695 349.17-325.735Zm490.75 8847.547c65.59 218.03 112.41 441.56 137.88 669.67 42.44 380.15 21.4 769.65 2.97 1150.85-16.96 350.2-57.21 703.5-125.74 1047.4-65.77 330.2-168.86 653.9-322.1 954.3-24.79 48.6-51.43 95.9-79.42 142.3 84.75-28.3 161.27-61.3 240.97-107 100.3-57.5 192.1-131.6 242.31-209.9 80.6-125.4 107.64-264.8 119.43-414.4 30.31-384.6 44.33-770.4 63.66-1155.7l4.29-83.9c31.27-602 72.25-1219.32 11.03-1821.94-86.12-22.67-163.83-67.19-235.53-123.05-19.78-15.4-39.75-31.71-59.75-48.63Zm-655-728.96c18.09 183.12 35.41 366.26 51.09 549.55 55.62 650.59 89.99 1304.83 58.37 1957.63-16.46 340-49.52 680.9-106.69 1016.6-25.76 151.2-56.91 302.5-91.71 452.1l-11.73 49.9c-35.31 148.2-57.82 333.4-170.92 441.2l.86 22.4c79.38-120.7 152.82-256.5 205.4-382.9 234.33-563 277.14-1176 319.48-1776.4 26.09-370 45.42-740.51 75.62-1110.22l14.66-177.91c16.82-207.06 31.31-412.58 29.33-619.45-45.13-67.44-81.8-138.34-104.57-211.12-3.66-11.72-6.17-23.56-7.93-35.39-95.44-45.33-185.31-107.2-261.26-175.99Zm1282.61 1288.37c47.09 156.99 85.51 315.99 112.88 475.61 43.6 254.2 69.76 509.9 81.26 766.5l24.05-90.7c60.56-226.7 124.92-453.7 204.68-673.8-126.16-88.5-231.57-227.49-323.27-343.67-34.27-43.4-67.51-88.21-99.6-133.94ZM6320.38 2653.21c-48.48 156.83-90.87 315.44-134.65 473.55-102.9 371.42-169.69 753.01-216.04 1135.32-184.94 1526.42-30.9 3059.02 170.54 4575.46 83.47 628.32 174.22 1255.66 252.12 1884.76 2.06-61.7 3.79-123.5 4.91-185.1 23.67-1335.23-200.6-2651.77-290.4-3980.09l-5.39-80.95c-40.7-621.07-65.6-1253.75 8.07-1872.56 37.91-318.51 104.69-630.21 193.57-937.99l52.91-180.78c35.76-121.55 73.77-246.34 118.87-367.36-6.03-11.6-11.77-23.3-17.1-35.01-62.41-137.49-105.84-282-137.41-429.25Zm156.24-1799.32c-465.51 601.44-856.14 1240.33-1092.48 1975.18C4843.24 4510.9 4964 6309.31 5277.45 8023.6c147.7 807.73 338.16 1606.05 511.95 2408.2-186.03-1440.43-425.92-2877.67-464.11-4331.92-20.85-793.71 20.11-1591.12 166.01-2372.56l8.64-45.95c62.53-330.25 139.98-680.15 298.55-976.94 86.1-161.16 181.14-311.55 293.86-455.49 47.53-60.71 100.9-109.39 157.51-153.91-16.6-414.61 45.97-864.21 226.76-1241.14Zm759.49 6408.15c231.59 9.13 462.97 73.83 645.35 224.67 142.67 117.97-60.79 317.34-202.3 202.7-153.89-124.64-291.91-266.24-455.95-379.62-19.55-13.52-14.19-48.82 12.9-47.75Zm-384.2-618.37c-51.5 26.6-102.66 31.97-160.99 17.62-2.13-.53-4.19-1.12-6.2-1.75l-11.92-3.89c5.1 55.34 10.46 110.67 15.77 166.01 47.06-66.41 101.64-126.55 163.34-177.99Zm-230.53-3339.38c-20.5 171.62-33.85 344.07-40.96 516.77-6.92 168.26-9.8 337.03-10.58 505.86l-.22 72.36.31-1.38c79.63-340.43 192.25-675.45 336.08-996.06-24.76 4.14-49.91 3.47-74.67.48-56.64-6.87-110.96-32.04-159.56-61.49-17.72-10.75-34.34-23.27-50.4-36.54Zm2362.31-1989.13c-98.98 44.83-194.57 96.36-293.9 140.17-196.99 86.9-389.73 187.92-572.04 302.6-184.49 116.07-362.21 238.27-525.66 383.02-19.15 16.97-38.12 34.13-57.07 51.27-3.82 37.44-6.6 75.02-7.85 112.91-.69 20.37-.72 41.66-.45 63.56 308.42-382.86 681.31-684.92 1154.36-874.93 82-32.94 165.35-62.28 249.46-89.42 20.02-27.86 37.97-57.43 53.15-89.18Zm-8.8-367.263c-55-73.162-213.12-67.196-312.81-50.89-161.19 26.384-303.18 82.86-441.34 164.623-163.31 96.6-304.18 227.48-414.4 381.41 54.25-30.67 109.51-59.59 165.94-86.45l38.66-18.3c213.73-100.4 445.24-195.85 679.01-226.98 108.16-14.4 224.48-35.25 333.76-23.51-5.39-53.22-21.19-103.131-48.82-139.903Z" clip-rule="evenodd"/>
  <path fill="#061308" fill-rule="evenodd" d="M12978.8 9451.74c-152 1.25-322.8-55.77-437-100.4l-29.7-11.8c-98.9-39.59-200.4-85.04-276.1-161.31-24.2-24.79-50-52.84-63.1-82.34-7.7-17.28-10.9-35.16-3.5-52.93 27.4-2.7 53.4-6.2 77.9-10.69 11.7-2.14 23-4.36 31.6-4.42 31.6-.2 63 3.83 94.3 7.79 4.5.57 9 1.15 13.6 1.71 24.4 3.02 48.6 6.28 72.8 9.53 70.5 9.46 140.5 18.84 212 22.26 51.6 2.48 105.7-.42 160.3-3.39 141.5-7.71 287.9-18.22 397 80.93 28.5 25.96 40.5 58.67 40.5 91.99 0 40.49-17.1 81.71-43.1 114.05-58.8 73.2-149.5 98.22-247.5 99.02Zm828.4-1276.88c-66.1 99.16-176.2 162.92-327.1 155.99-299.9-13.71-657.8-126.86-909-290.46-65.4-42.6-107.8-110.7-115.4-183.65l-13.5-129.8-73.1 108.09c-7.7 11.26-15.4 22.49-23 33.73-21.2 30.94-42.4 61.88-62.3 93.58-76.7 121.75-146.9 244.71-210.7 373.68-45.1 91.31-78.2 193.45-111.3 296.49-55.9 173.98-109.9 345.09-229.3 467.37-18 18.49-45.8 25.11-71.2 21.84-22.4-2.88-44.3-13.86-55.1-35.73-142.7-290.17 49.2-639.85 204.9-882.94l16.5-25.38c144.4-219.68 380.1-510.4 650.1-549.92l31 49.3 44.9-29.98c73.5-49.02 170.5-46.74 255.5-8.39l84.9 38.35c158.2 70.96 314.2 136.44 485.3 172.31 12.4 2.61 24.9 5.05 37.3 7.32 11.8 2.14 23.6 4.14 35.5 6-2.6-11.67-5.3-23.28-8.1-34.86-2.9-12.25-5.8-24.53-8.9-36.77-3.2-12.64-6.7-25.2-10.1-37.72-13.7-49.91-29.2-99.37-47.6-147.8-69.1-182.05-179.4-352.31-286.7-514.72l-12.6-19.1c-15.4-23.27-32.3-47.55-49.7-72.67-83.7-120.51-176.5-251.31-183.1-382.59 111.1 6.99 204.1 76.01 285.9 136.1 112.3 82.4 216.4 176.64 310.8 279.03 183.1 198.62 347.4 452.55 419.5 715.05 41.3 150.31 23.1 312.05-54.3 428.25Zm-2929.9-1497.48-.1-5.35c.4-151.58 88.6-497.65 306.9-497.65 136.3 0 219 235.53 233.4 478.32l.5 9.9c6.3 150.95-35.1 480.89-233.9 480.89-201 0-304.8-312.5-306.8-466.11Zm3212.5-47.54v-5.35c-.3-151.58-88.6-497.65-306.8-497.65-132.9 0-214.9 223.9-232.2 460.13l-1.2 18.19c-8.6 145.85 30.2 490.79 233.4 490.79 200.9 0 304.8-312.5 306.8-466.11Zm-2477.7-978.24c-28.9 3.38-57.6 7.83-86.4 12.4-83.9 13.36-167.4 29.41-250.2 48.11-157.5 35.54-313.6 80.41-466.8 131.11-143.3 47.47-284.4 101.11-425.5 154.75-7.5 2.86-15 5.72-22.6 8.59-49.8 18.93-99.4 40.15-149.2 61.44-75.8 32.4-151.9 65.02-229.6 89.6 204.7-282.99 520.1-492.68 823.5-642.73 173.2-85.62 356.9-154.65 541.6-211.22l102.9-30.92c151.6-44.7 317.2-86 459.6 3.14 56.3 35.25 92.2 90.05 103.5 149.3 11.1 58.1-1.6 120.39-41.7 172.38-34.9 45.29-78.5 71.08-124.9 79.92-51.1 9.76-105.3-.96-154.7-27.32-39.6-2.95-51.2-1.88-62.9-.58l-16.6 2.03Zm2279.5 28.79c-101.4-22.05-201.9-30.9-305.9-27.73-47.1 1.42-92.6 8.69-138 16-70.5 11.36-140.7 23.09-216.7 9.31-39.6-7.2-73.4-30.38-99.4-60.63-30.5-35.38-50.7-80.59-57.1-123.58-6.7-44.41-.1-83.24 16.4-117.53 19.4-40.52 52.1-74.66 91.6-104.57 119.6-90.53 324.7-68.76 465.9-50.45 139.4 18.13 278.1 61.37 401.4 130.06 121.6 67.8 227.4 159.12 309.9 270.75 69.5 94.1 102.3 202.39 136.1 312.65-159.1-133.49-402.6-210.52-604.2-254.28Z" clip-rule="evenodd"/>
  <path fill="#061308" fill-rule="evenodd" d="M14982.1 7331.84c-288.6 298.19-770.4 383.76-1154.3 223.84-985.9-411.9-503.3-1696.63 257-2041.65 95-23.67 221.8-79.84 337.5-92.58 10.5-5.13 33.2 9.72 60.8-4.32 838.4 93.6 1029.3 1395.02 499 1914.71Zm-3179.8 76.32c-323.7 429.3-925.4 561.75-1417.1 362.18-971.25-382.5-626.76-1521.74 37.8-1968.36 1403.7-527.47 1983.4 814.64 1379.3 1606.18Zm-2105.52-951.2c-.9-.42-1.81-.64-2.73-1.07a1498.7 1498.7 0 0 0 15.38-6.82c-1.67 4.35-3.47 8.65-5.09 13-2.52-1.73-4.73-3.75-7.56-5.11Zm5953.52-464.05c-79.3.17-193.7 13.2-259.3 68.17-161.8-545.57-758.9-1050.51-1278.3-682.32-408.9 131.52-712.4 423.19-884.8 810.96-311-184.97-800-105.98-1069.7 138.63-176.6-583.56-611.2-787.91-1128.6-818.07-564.6-92.49-1127.43 455.89-1303.04 895.82-146.01-16.62-364.19-63.09-501.55 27.02-891.52-233.79-2450.19-362.69-2631.44-232.79-129.16 49.55-200.04 354.42-19.63 370.87 157.21-22.32-18.35-223.39 140.12-245.32 844.36-52.34 1664.05 117.7 2499.47 189.06 74.58 100.33 315.58 133.89 444.15 93.58-202.49 746.26 234.63 1253.97 889.62 1406.05 1014.1 232.96 1896.5-674.27 1631.3-1617.91 307.2-152.84 660.6-146.28 995.3-65.77-559.3 2058.19 2755.5 1965.84 2237.8-199.28 344.5 171.38 419.4-104.11 238.6-138.7Z" clip-rule="evenodd"/>
</svg>