<svg xmlns="http://www.w3.org/2000/svg" fill="none" viewBox="0 0 19463 28595" class="illustration">
  <path fill="#061308" fill-rule="evenodd" d="M11711.2 14971.9c2.2-21.6 31.4-21.6 33.7 0l33.4 322.5c40.6 393.8 79.7 786.8 108.1 1182.4 35.3 493.4 59 986.6 70.4 1481 39.7 1722.1 47.6 3445.1 51 5167.6 232.9-16.1 465.9-31.7 699-46.7 158.1-10.2 316.3-20 474.4-29.7l403.3-24.4 166.1-10.2c112.2-7 239.6-35.2 318.1 64.2 31.4 39.8 47.1 91.5 17.9 138.7-67.6 109-171.3 105.2-288.6 109.9-110.7 4.4-221.4 8.8-332.1 13.1-237.2 9.2-474.4 17.9-711.7 24.5-249 7-497.9 12.7-746.8 16.9-2.5 727.2-32.6 1453.5-65.1 2179.8l-14.7 326.9c-39.8 884-82.7 1768.7-143.5 2651.5-5 72.3-107.2 72.1-112.2 0-68.5-994.2-113.7-1990.4-158.5-2985.9-32.5-721.8-51.4-1443.8-60.4-2165.8-32.9.2-65.8.7-98.7.8-934.3 4-1868.29 8.1-2802.54-.6 1.56 1.8 3.09 3.6 4.12 6.1 67.6 159.6 74.04 363.3 72.39 534.5-1.89 196.5-28.34 390.5-73.59 581.5-162.1 684.4-580.2 1297.4-1056.39 1804.1l-15.55 16.5c-112.32 118.7-241.18 237.9-310.15 389.1-70.45 154.4-94.9 334.9-129.66 500.8l-4.06 19-135.92 627.9c-43.19 199.4-55.45 490.2-213.3 634.1-147.27 134.2-342.37 64.1-411.67-108.7-54.12-134.9-.21-283.1 31.84-417.9l251.14-1055.7c41.27-172.2 86.36-345.4 175.42-500.1 91.23-158.4 224.98-273.2 361.45-390.7 258.42-222.5 495.65-477.2 696.28-753 200.55-275.7 371.95-579.5 492.15-899.1 60.18-159.9 109.49-326.1 143.51-493.6 32.34-159 32.05-323.7 66.64-480.9 2.37-10.9 11.54-18.3 22.05-21.7-2.49-7 1.32-16.4 11.13-17.1l764.06-49.1c679.18-43.8 1358.35-88.7 2036.85-140.1l120-8.6c-9.4-963.4-1.5-1927 15.9-2890.8 16-883.8 16.3-1767.8 42.6-2651.5 13.1-438.6 41.3-876.1 72.6-1313.8 32.1-447.6 83.4-891.4 129.6-1337.7ZM4537 20096.4c-8.14-49.1 53.6-79.5 82.06-34.6 325.35 512.8 482.22 1069.8 548.34 1669.9 58.41 529.7 41.2 1066.9 12.11 1598-31.02 566.3-67.22 1132.6-103.82 1698.7l-56.23 868-141.12 2176.3c-10.1 155.6-45.43 297.2-179.47 369.6-16.97 14.1-34.66 26.8-55.27 37.9-72.41 38.7-168.46 19.1-210.32-55.2l16.78 11c14.63 9.3-1.79-3.6-49.27-38.5l-40.29-52.1c-29.27-44-47.97-87.3-55.49-139.6-11.68-81.2 3.45-170.4 8.76-252.1l92.5-1427c71.94-1109.4 155.94-2218.5 219.26-3328.4 29.49-517.3 50.15-1035.1 36.17-1553.4-13.93-515.3-40.2-1039.4-124.7-1548.5Zm2814.55-9552.8 18.05-3.1c646.22-107.3 1348.91-87.2 1939.5 224.3 4.89 2.5 2.66 10.7-2.82 10.4l-190.1-7.6c-601.79-23.5-1201.71-37.5-1793.43 103.9l-60.57 14.6c-213.09 52-435.62 115.6-606.79 256.3-163.59 134.6-245.05 342.1-323.38 533.1l-10.48 25.3c-79.47 188.6-180.06 367.6-354.25 485.6-225.62 152.8-496.96 134.1-755.67 154.8-455.5 36.6-827.91 366.7-1013.2 770.7-112.19 244.6-160.05 518.8-169.53 786.3-4.86 136.2-5.55 277.7 12.59 413 5.8 43.3 59.28 200.8 86.54 197.1 60.59-8.4 115.98 23.2 134.87 71.6 149.67-144.6 303.64-285 462.57-420.4 396.15-337.4 822.86-643.1 1272.23-905.9 342.97-200.5 704.73-399.2 1079.34-549.4-29.68-.7-58.96 5.2-87.28 19.9-12.4 6.5-24.72-9-14.93-19.3 117.99-124.2 259.32-141.8 401.81-108.7 30.4-9.7 60.82-19.1 91.37-27.9 15.2-4.5 22.76 16.5 10.36 24.6l-34.99 22.3c155.43 52.1 308.04 154.4 428.85 235.2 347.07 231.9 652.55 515.5 962.21 793.7l56.31 50.5c272.58 243.4 552.1 479.9 861.79 675.1 162.11 102.2 332.38 196.7 510.98 267 153.2 60.4 402.6 98.4 474.3 260.3 63.8 77.4 37.2 176.3-37.5 228.4-126 138.7-378 49.1-528-8.6-181-69.6-356.3-153.3-523.49-251.4-324.58-190.6-623.86-427.5-902.65-679.5-291.16-263.2-565.81-542.9-849-814.4-122.7-117.6-242.57-238-365.46-355.4l-61.72-58.5c-62.72-58.8-152.09-150.5-247.62-206-180 107.4-362.77 210.3-541.14 320.4-248.98 153.8-490.64 318.6-728.56 488.9-458.04 327.7-892.1 694.8-1295.06 1088.2-739.03 721.6-1368.66 1545.5-1918.69 2418l-41.77 66.5c-312.56 499.4-608.14 1014.8-817.72 1566.6-230.6 607.2-342.76 1245.8-403.68 1890.3-60.47 639.9-80.86 1283.1-148.44 1922.4-69.3 655.7-205.85 1296.9-361.162 1936.9l-37.042 151.8c-140.534 573.2-285.585 1146.4-357.825 1733.1-38.565 313.4-61.761 631.1-56.518 947 5.266 317.8 55.202 628.6 95.49 943 15.441 120.5-103.103 221-209.175 237-121.99 18.3-226.793-59.6-264.712-172.9C18.148 27935.5-3.325 27545 .386 27174.2c3.734-376.5 51.778-750.4 119.381-1120.4 132.954-727.7 338.131-1440.3 509.771-2159.3 151.267-633.7 252.791-1268.5 307.514-1917.7 56.806-673.5 90.828-1349.3 194.458-2017.9 102.28-660.2 294.75-1290.7 585.01-1892.7 264.28-548 593.72-1063.9 939.1-1563.9 419.43-607.1 880.08-1184.9 1395-1711.3-46.25-2-93.74-16.9-137.36-44.1-133.43-83.3-195.58-246.1-214.68-394.7-44.72-347.8-33.92-710.8 55.51-1050.8 144.28-548.5 518.73-1035.8 1061.41-1233.6 139.68-50.8 288.17-69.4 436.21-73.1 140.47-3.5 293.89 14.8 429.43-29.7 215.75-70.9 308.22-325 389.22-517.6l3.74-8.8c103.86-245.5 228.54-455.9 453.51-609.1 240.02-163.6 540.76-237.9 823.94-285.9Zm6140.15 970.6c194.2-67.4 437-6.2 626.9 52.6 211.6 65.6 407.1 186.4 574.7 329.9 176.8 151.3 323 338.1 426.2 546.8l9.9 20.1c94.3 193.6 201.7 459.3 154.2 672-1.4 6-3 11.9-4.7 17.5 385.2 189.7 741.1 427.2 1050.9 728.3 360.8 350.6 666.3 749.5 924.9 1180.5 1026.8 1711.8 1207.5 3767.6 1328.8 5719.8l30.2 495c65.9 1068.8 142.9 2135.1 343.1 3189.2l14.6 76.1c214 1103.6 520.3 2215.7 489.3 3347.8-9.3 339.2-510.7 336.9-525.2 0-54.7-1268.1-350.6-2492.4-551-3740.7-352.6-2196.2-175.9-4460.3-675.5-6634.4-196.1-853.2-499.8-1680.9-933.5-2442.5-214.2-376.2-459.3-739.8-746.5-1064.3-247-279.3-503.7-548.1-792.4-782.9-92.3 92.4-276.6 45.3-324.7-89.4-33.1-92.6-23.5-200.8-44.7-297.8-19.7-89.9-46.9-179.2-83.1-263.9-72.1-168.9-178-331.1-300.3-467.8-132-147.7-283.8-270.5-453.7-371.8-171-102.1-358-132.5-538.4-207.1-6.1-2.5-6.6-10.7 0-13Zm754.5 11737c.3-9 10.8-13.2 17.2-7.2 68.1 62.6 109.3 152.6 159.4 229.6 57.8 88.9 118.4 175.9 182.1 260.7 127.5 169.9 269.4 330 412.5 486.8 133 145.9 274.8 285.7 421.9 417.4 159.4 142.7 338 270 482.8 428.1 302.2 329.8 351 782.4 414.7 1207.4l7 45.9c38.9 252.2 73.7 505.1 105.1 758.4 15.3 123.2 30.5 246.5 43 370l3.8 39.1c11.1 120.9 14.1 243.6-55.4 349.2-74.3 113-243.3 152.6-343.7 44.3-172.7-186.2-140.3-516.9-162.8-756.4-18.5-198-39.5-395.8-63.1-593.4l-12-98.7c-27.8-224.7-50.3-453.8-101.7-674.6-45.3-194.4-131.7-341.2-273.3-482-142.8-141.9-291.1-274.4-422.8-427.2-139.7-162-265.8-335.8-379.3-517.2-97.2-155.1-175-323.9-246.3-492.5l-11.9-28.1c-68.9-164.4-182.6-378.5-177.2-559.6Zm2492.3-7063c1.5-22.9 35.4-23.3 35.9 0 4.3 197.3 8.4 394.5 12.5 591.8 32.9 1589.6 12.6 3182.9 172.1 4767 75.2 746.9 213.7 1482.8 374 2215.7 82 375 168 749.1 249.8 1124.1 79.7 365.6 165.1 732.8 228.3 1101.8 62.1 362.5 117.7 727.9 142.7 1095.2l3.1 47.9c10.7 177.9 62 439.5-36 597.2-106.1 170.8-309.3 173.9-423 10.8-106.8-153.1-80.3-425.4-99.1-608-19.2-186.1-39.5-372.3-62.5-558-45-362.1-104.2-723.4-165.7-1083-128.3-749-314.3-1488.6-451.6-2236.4-140.7-766.2-240.7-1538-244.9-2318.1-4.2-786.8 79.1-1572.1 121.1-2357.1 42.7-797.4 91.3-1594.1 143.3-2390.9Zm-7509.07-4944.1c42.68-143.7 193.3-233.5 340.24-193.2 134.65 37 245.82 200.5 193.18 340.3-57.45 152.6-157.85 282.7-242.5 421.3-78.18 128.2-192.22 229.1-271.87 355l87.77 94.6c43.91 47.2 87.94 94.1 132.47 140.2l153.07 158.6c119.22 123.2 239.19 245.8 362.54 364.7 362.67 349.9 731.17 688.3 1137.37 987.9 92.5 68.1 185.7 135.9 281.5 199.4l35.7 23.7c65.7 43 139.1 85.3 218.5 78 192.9-17.7 367.2-222.6 499.8-350.1l7-6.6c328.5-312.7 632.7-654.5 898.7-1022 59.1-81.6 116.3-164.7 171.9-248.7-128.5-150.2-97.8-443.4-104.9-625.6-5-128.1-5.4-256.2-6.1-384.4l-.4-25.8c-1.5-83-5.3-162.6 48.6-230.9 3.1-3.9 9.6-3.8 13.6-1.7 73.8 38.6 96.5 103.3 128 175.9l3.2 7.6c38.3 87.1 75 175 112.1 262.6 38.9 91.7 74.5 184.8 110.6 277.6 16.8 43.2 32.8 86.6 48.5 130.2 9.6 27.8 19.5 55.5 29.6 83.2l2.4 2.1c13.4 11.4 24.8 23.4 34.6 35.8 41.1 20.6 73.8 58.1 89.2 113.2 33.4 119.9-35.8 217.8-97.4 313-250.4 386.8-535.8 755.4-853.1 1089.8-157.6 166.2-323.4 324.8-496 475.3l-30.2 26.2c-155 133.2-323.4 259.4-530.4 290.6-242.3 36.5-439.6-84.1-625-222.9l-18.6-13.9c-175.8-133.1-348.1-270.9-515.1-415.1-340.4-293.8-664.17-609.4-951.55-955.5-279.55-336.8-555.88-713.3-728.19-1118.4-10.51-24.7 17.12-50.5 38.76-29.9 84.17 80.1 165.15 164.6 245.18 250.1 2.22-125.9-21.02-252.9-8.09-379.6 15.77-154.1 11.22-324.3 55.32-472.6Z" clip-rule="evenodd"/>
  <path fill="#061308" fill-rule="evenodd" d="M9376.96 802.117C10842 136.147 12503.7-116.405 14101.8 49.25c788.8 81.635 1567.2 256.778 2308 541.279l64.9 25.147c182.9 70.531 380 140.54 519 284.11 161.7 166.854 207.1 419.164 91.5 625.274-89.8 160.15-251.3 275.03-423.6 336.34 60.7 49.79 118.3 105.33 172.3 167.33 91 103.89 97.9 252.05 0 354.53-188.7 197.49-433.6 340.38-697.3 408.87 29.6 143.39 13.6 302.1-49.9 445.02-182.4 410.23-696 459.12-1091.3 434.76l-11.9-.76-22 252.07c-11.7 134.3-91.9 238.43-228.1 259.02-4.8.72-9.6 1.2-14.3 1.65 215.4 780.9 345.6 1585.93 465.8 2386.22 62.8 417.75 119 836.47 172.8 1255.46l17.8 139.68c57.3 451.72 129 907.99 153.9 1363.06 22.2 412.94-56.4 807.19-310.4 1140.39-227.8 298.8-538.6 522.6-872.8 688.8-755.1 375.5-1549.9 655.1-2385 784.9l-55.7 8.6c-322.4 49.3-654.5 90.8-973.4 1.4-280.2-78.5-574-281-510.7-606.3 21.2-109.9 174.6-114.7 227.1-29.7l12.2 19.5c63 100.2 132.1 193.3 242 245 128.8 60.8 278.1 77.8 418.8 79.5 392.9 4.5 802.1-93.6 1180.5-192 706.6-183.8 1432.3-483.5 2011.2-937.7 246.2-192.9 444-434.2 513.8-744.69 86.2-382.78 6.9-801.22-32.3-1185.91-80.6-793.79-176.5-1586.1-277.8-2377.54l-20.3-158.27c-85.2-661.66-174.8-1323.57-217.4-1989.06-17.6-24.17-29.6-51.7-34.4-81.87l-6.6-43.32c-5.8-37.11-6.7-71.1-2.7-102.46.3-120.17 3.6-239.63 10.5-359.82 1.2-21.52 2.2-43.07 2.9-64.37-124.7 27.53-250.4 49.79-376.5 68.7-886.7 133.82-1787.3 167.33-2681.2 100.78-446-33.3-888.6-90.49-1329.8-162.06-224.59-36.39-448.4-76.61-671.51-121.61-161.25-32.32-319.15-76.12-477.76-117.3-163.64 238.67-252.02 532.39-234.82 820.85 19.35 329.16 238.16 627.67 176.77 964.01-57.62 314.77-326.73 412.36-592.41 490.32l-113 32.72c-86.93 25.43-150.05 49.97-165.79 154.66-26.99 179.78 6.21 382.06 13.14 562.79 8.36 213.78 19.32 427.55 24.36 641.32 2.63 110.59 6.91 221.67 6.69 332.26-.24 78.52-11.94 132.15-42.28 182.87 23.41 29.47 44.41 61.31 63.07 95.06 5.97 11.01-8.84 22.72-17.66 13.65-23.67-24.66-48.78-46.92-75.27-66.82-13.38 16.55-28.9 33.3-47.08 51.26l-1.41-1.92c-56.85 56.74-147.15 62.24-217.64 1.92l-18.5-16.06c-51.6-45.33-87.05-83.07-101.4-157.98-.72-3.83-1.46-7.66-1.91-11.49-131.15-4.55-264.44 26.55-382.45 91.93-187.04 103.65-318.66 251.35-396.51 433.76 31.03 36.39 67.34 68.95 109.62 96.24 5.97 4.07.71 12.92-5.74 9.81-43.23-20.35-81.93-45.48-116.57-74.93-27.95 71.82-47.54 148.9-59.48 230.53-42.04 288.22 32.96 640.36 292.87 804.58 112.51 71.09 241.03 109.63 374.32 110.11 64.95.22 121.11-10.77 184.18-26.33 42.76-10.53 85.28-25.85 129.95-25.85 38.22 0 73.57 9.57 106.3 28.72l-9.08.8c-22.05 2.07-17.81 3.01 12.9 3.01 95.56 4.09 150.24 101.28 106.31 185.79l-5.77 13.05c-1.21 2.64-2.24 4.82-3.05 6.55l-3.47 22.42c-.35 2.13-.71 4.32-1.09 6.57l-1.33 4.54c-.24.73-.5 1.45-.82 2.16l143.3 219c175.71 267.91 355.33 534.78 559.72 779.52 143.33 171.6 295.26 339.9 455.79 495.7 144.28 140.1 317.23 207.6 480.62 317.7 87.22 58.4 112.76 180.7 33.47 259.5-232.69 231.5-562.11 47.6-752.97-140.5-180.6-178.4-336.59-392.9-471.08-607.6-238.64-381.8-428.55-787.81-511.68-1228.52-34.63 31.84-78.83 51.71-123.5 67.27-89.58 31.12-188.24 44.04-282.83 47.4-181.31 5.98-362.86-38.07-526.02-116.11-663.85-317.18-761.31-1267.06-355.45-1827.22-54.73-159.04-85.29-331.61-118.5-478.76l-15.11-65.78c-167.8-734.74-280.51-1508.31 17.04-2228.27 38.22-92.88 81.21-183.36 132.1-270.02 40.84-69.66 111.08-143.87 130.42-223.11 43-174.03-222.39-356.92-299.79-495.05-91.01-162.06-103.91-353.33 20.07-501.53 15.76-18.65 32.94-35.91 51.59-50.97-117.53-213.53-123.02-482.12 31.77-692.78 101.77-138.84 257.04-236.04 426.65-265.48 103.67-17.95 228.36-11.25 342.31 20.83 623.93-580.51 1335.82-1065.51 2110.96-1417.883ZM6981 8065.79c166.53-147.22 350.47-224.3 577.4-204.91 228.13 19.6 502.85 114.18 636.83 310.24 105.85 154.88-109.86 382.06-265.13 265.72-141.42-106.05-235.8-225.74-411.35-282.72-157.69-50.98-352.85-83.78-517.92-54.58-18.15 3.12-36.28-19.39-19.83-33.75Z" clip-rule="evenodd"/>
  <path fill="#061308" fill-rule="evenodd" d="M12653.6 10220c-160.9-65.7-304.5-175.2-409.5-315.05-36.5-48.63-45.9-99.98-38.3-146.95 8.6-52.81 39.9-100.68 82.5-132.78 42.7-32.21 96.2-48.09 147.9-40 44.9 7.04 89.6 31.63 125 82.64l7.4 10.2c62.4 84.43 143.7 153.7 236.4 198.35 89.3 43.04 189.2 63.12 292.5 51.44 196.9-22.24 332.6-128.7 476.8-273.28 17.9-18.26 35.8-37.08 53.8-56.21 11.3-17.34 27.1-28.49 44.6-34.34 19.4-6.49 41.3-6.12 61.5.9 19.4 6.77 36.7 19.61 48.4 36.69 11 16.23 17.3 36.29 15.2 59.36-13.2 149.83-91.5 283.55-202.8 388.53-123.5 116.6-287.4 197.3-441.6 225.6-169.9 31.2-343 8.8-499.8-55.1Zm580-2311.5c180.7 109.88 456.2 366.09 261.7 638.5-228.9 240.19-558.5-35.21-720.9-159.75-150.6-96.53-319.8 151.73-180 264.44 1173.5 868.85 1649.8-714.46 730.6-872.38-101.2-17.4-138.8 95.2-91.4 129.19Zm-2103.1-1010.7c20-247.92 397.6-304.21 435.1-58.89 33.7 219.75-5.9 421.63-104.9 619.48-94.6 189.02-332.3 100.83-350.3-71.29-24.1-230.71 7.7-335.09 20.1-489.3Zm2874.2-109.76c52.6-68.94 128.6-116.01 219.7-89.41 284.5 83.14 200.7 487.05 100.7 683.66-54.3 106.77-229.8 133.84-309.1 39.83-129.2-153.3-191.1-459.45-26.8-610.45 4.5-7.81 9.4-15.68 15.5-23.63Zm-2548-975.04 44.9-7.87c139.1-24.04 311.9-47.15 410.3 64.63 52.1 59.27 70.1 169.43 0 226.17-123.3 99.82-259.7 61.14-407.5 69.59-121.8 6.99-238.9 27.14-356.2 60.68-257.4 73.57-467.1 207.86-686.9 355.32-28.9 19.34-58.3-17.54-44.5-44.52 126.9-248.56 372.8-452.73 619.1-577.19 131.5-66.42 275.3-121.53 420.8-146.81Zm2288.6-111.34 34.4 7.04c374.4 78.24 860.7 234.55 1038 602.23 6.7 51.99-.4 63.13-6.2 70.41l-1.9 2.43c-4.8 6.21-8.6 14.78-31.2 21.86-6.2-1.49-12.5-3.07-18.9-4.74-81.3-21.3-145.6-50.63-207.8-81.07l-67.5-33.25c-78.3-38.38-157.3-75.37-241-102.68-178.6-58.27-362.3-99.31-548.9-121.23-40.5-4.75-79.4-18.39-110.1-41.79-29.2-22.2-51.5-52.94-61.6-93.8-13.2-52.88-9.4-92.92 19-140.63 21.3-35.82 51.8-60.66 86.9-74.92 35.7-14.53 76.4-17.96 116.8-9.86Z" clip-rule="evenodd"/>
</svg>