<svg xmlns="http://www.w3.org/2000/svg" fill="none" viewBox="0 0 19419 28851" class="illustration">
  <path fill="#061308" fill-rule="evenodd" d="M16617.1 20438.1c-32.4 157.3-77.8 314.5-138.2 463.5-58.1 143.7-145.7 272.5-206 414.5-8.1 19.1-21.3 33.6-37.3 44.7l5 38.6 4.5 38.6c30.1 260.8 64 520.8 93.3 781.5l14.2 130.4c57.6 544.3 148.7 1086 219.3 1628.9 69.2 531.6 139.6 1063.2 214.9 1594.1 77.8 547.3 157 1093.8 249.5 1638.9 39 230.3 79.8 460.3 122.3 690.1l32.7 175.9c337.6 81.2 429.8 551.7 86.1 725.4-155.9 78.5-356.4 59.6-484.9-63.7-133.7-128.6-139.2-360.5-170.2-534.6l-29.9-161.9c-223.5-1216.8-417.5-2447.7-508.2-3681.8-23.3-318.6-42.9-637.5-55.7-956.7-12.1-300.2-6.3-600.4-10.9-900.6l-1.6-81.9c-7.1-320.1-1.2-639.8 7.1-959.9 1-39 2.7-78 4.7-117.3-11.3-13.2-19.4-28.9-22.8-44.1l-4.4-20.2c-11.1-51.7 1.4-112.3 41.2-149.4 17.2-218 39.7-435.9 45.9-653.7.4-17.9 26.2-17.4 27.7 0 14.5 185.4 43.4 371.4 72.3 557.1 186.2-149.7 323.9-396.4 405.1-603 5.9-15 27.7-9.6 24.3 6.6Zm-4405.5-8670c30.9 141.3 92 268.1 174 386.1 39 56.5 83.4 108.9 136.6 152.9 45.7 37.5 97.7 62 146.2 94.7 70.7-11.1 144.5 15.7 194.1 67.6l-7.9-76c-2.4-24.5 38.3-29.4 43-5.7 214.6 1082.4 410.3 2165.5 579.7 3255.7l74.3 481.5 69.9 452c116 753.1 228.3 1506 312.8 2264.7 112.6 1012.4 207.2 2027.6 276.4 3044.1 69.4 1023.8 112.2 2048.2 142.6 3073.9 7.6 258.6 15.7 516.9 23.5 775.4l52.4-309.1c52.3-309.2 103.6-618.7 147.5-929.2 157.8-1111.6 283.9-2231 345.4-3352.1 56.5-1025.9 37.6-2072.2-223.4-3071.6-65.8-251.5-146.2-499-243.4-740.1-94.2-234.5-222.7-451.9-324.1-683-117.7-268.8-153-522.5-92.4-812 53-252.2 145.9-489.4 162.6-748.9 31.2-481.8-125.6-948.5-347.1-1370.1-58.4-111.2-120-220.8-184.3-329.5-194.5-328.5-413.8-645-641.4-948.4-12.3-16.2 13.7-34.1 26.9-20.8 207.6 205 434.5 406.7 621.2 630.7 90.7 108.9 179.3 220 263.2 334.1 920.4 153.8 1711.4 727.1 2252 1484.2 613.6 859.1 923.9 1893.1 1153.5 2911.4 255.4 1131.7 470.8 2273.6 700.2 3410.9 237.4 1176.8 473.6 2353.6 712.6 3530.1 118.7 584.1 237.5 1168.2 355.9 1752.6 60.1 295.8 123.2 591 189.2 885.8 33.9 151.1 70.2 302 101.6 453.6 35.3 171 2.4 280.4-113.4 406-42.7 46.6-110.1 45.9-163.1 21.1l-16.6-7.8-16-7.7c-65.6-32.2-117-65.6-157.8-137.3-44.9-78.8-52-166.1-67.4-253.7-28.5-161.2-56.7-322.3-85.2-483.7-42.5-241.4-88.7-482.1-135.8-722.8l-236.1-1202.6c-62.9-320.7-126-641.3-189.4-961.8-226.4-1146.1-453.1-2292-679.7-3437.9-217.6-1100.3-410.2-2208.1-658-3302l-14.1-61.6-14.3-61.6c-221.5-943-531.1-1855.2-1092.7-2654.3-432.2-614.5-1032.5-1163.2-1739.5-1441 49.8 71.7 97.6 144.8 143.2 219.4 286.6 468 495.8 1023.7 446.7 1581-24 272.3-127.5 540-117.7 814.5 9.1 243.8 160 458 264.2 670.2 236.7 480.8 408 991.8 518.4 1516 221.5 1052.7 220.8 2135.8 144.4 3204.4-82.9 1161.6-240.3 2322.9-419.7 3473.2-92 590-214.4 1175.1-308.1 1764.1-46.4 290.4-109.4 580.2-164.6 869.2l-26.3 138c-14.8 76.7-30 153-47.7 228.6l-10.9 45.2v8.1c-.5 55.7-15.7 101.9-40.2 138.7-33.6 107.6-75.3 212.7-130.8 313.5-28.4 51.5-69.7 80.4-114.6 91-45.1 103.3-147.4 182.7-269.5 182.3l-1606.6-6.2c-933.2-3.7-1866.4-9.8-2799.61-15-235.48-1.2-470.75-5.6-706.01-11.7-220.54-6.1-432-32.6-650.09-60.1-246.32-30.9-379.75-205.3-342.95-451.4 8.09-54.2 16.9-108.2 25.26-162.2-49.06 16.2-107.44 8.6-146.94-29.9l-37.03-36.2c-51.33-50.8-97.24-100.7-129.79-168.4-33.61-69.6-60.86-143.2-90.54-214.4-64.03-153.1-126.32-306.6-186.94-460.9-121.4-308.6-242.84-618.5-355.71-930.3-223.46-617.5-421.21-1244.3-593.15-1878.1-306.65-1131-528.44-2283.7-668.27-3446.8l-33.44-277.2-9.72-81.8c-53.02-450.8-97.65-908.6-76.56-1358.4 13.03-281.7 56.67-565.5 161.94-828.5 97.12-242.6 247.01-450.1 389.54-667l16.31-25 16.39-25.7c124.65-196.9 223.84-402.9 228.81-642.1 5.03-242.7-65.69-479-144.76-706.2l-19.71-56.1-13.22-37.1c-168.22-469.6-359.65-932.7-296.51-1443.8 93.24-752.6 549.51-1359.3 1123.58-1827.1-510.53 101.1-1015.87 300.8-1461.85 553.9-526.73 299.3-1000.93 694.3-1409.87 1140-772.75 842.4-1324.47 1853.2-1776.08 2896.8-472.75 1092.1-823.31 2236.5-1087.49 3395.9-265.684 1166-443.54 2350.6-564.997 3539.9-60.569 592-108.185 1185.4-147.657 1779.1-20.116 304.2-35.326 608.9-58.876 912.6-23.551 303.4-34.124 611.5-108.21 906.9-34.59 137.6-267.888 151.6-292.886 0-55.477-338.6-39.973-688.7-24.49-1031.6l1.406-31.1c15.234-341.5 35.105-682.7 58.631-1024 48.107-697.4 112.356-1393.9 196.255-2088.1 294.136-2437 836.554-4861.2 1900.504-7085.8 500.94-1047.7 1143.92-2065.8 2038.35-2822.4 425.85-359.9 905.93-647.1 1423.31-855.2 462.69-186.1 932.72-274.2 1424.34-274 246.54-188.9 511.24-353.5 775.67-494.1 15.95-8.5 32.63 12.1 19.41 25.3-6.87 6.6-13.52 13.5-20.37 19.9 29.93 2 60.82 15.9 88.54 45.1 97.17 101.8 179.11 229.2 252.43 361.4 111.62 139.3 218.09 283.3 329.49 421.2 178.32 220.8 360.84 438.4 545.59 654.2 310.26 362.8 630.63 718.8 964.67 1060.4l55.8 56.8c173.2 175.4 348.6 385.4 553.5 524.3l10.9 7.2c86.4 56.3 147.7 66.6 221.4-17.5 67-76.6 122.7-165.4 180.1-249.7l13.2-19.4c292.7-425.2 564-866 809.6-1319.8 111.9-206.6 218.4-416.1 319.4-628l30.1-63.6c55-116.8 114.6-231.3 160-351.6 10.5-28.1 20.8-56.4 30.9-84.3-154.6-101.3-274.3-320.7-317.7-492.4-45.1-178.3-22.3-361.4 58.1-524.5 15.2-30.6 66.3-23.1 73.6 9.6Zm-7624.17 7247.4c-21.39 678.1-34.36 1356.9-66.28 2034.5l-11.02 231.3c49.78 55.4 78.97 119.4 55.67 207.3-9.05 33.6-35.82 64-69.18 75.3l-10.4 215.1c-47.35 967.6-102.85 1933.3-204.26 2898.5-126.83 1207.9-273.53 2413.9-419.96 3619.6-20.85 170.8-139.61 306.2-324.33 281.2-186.91-25.3-262.71-188-238.18-357.5 96.41-665 189.12-1330.6 270.34-1997.8l92.48-760.2c115.97-950.3 234.67-1900.5 371.42-2847.7 57.16-396 116.52-791.7 176.11-1187.4l-20.83-27c-85.15-110.6-173.22-218.8-260.3-327.7-167.29-210-332.39-418.3-485.71-638.1-7.63-11 7.85-27.2 18.87-18.8 214.89 158.7 418.29 328.4 622.88 500.9l179.09 151.6c103.03-683.7 205.08-1367.7 296.07-2053.1 2.23-17.1 27.99-18.4 27.52 0Zm3091.23-6489.1c-129.31 121.9-261.51 241.1-391.8 362.3l-47.72 44.6-47.5 44.8c-228.97 217.2-448.35 443.2-631.14 702.7-335.59 476.7-535.53 1057.8-395.97 1639.7 115.82 482.1 381.5 919 452.88 1413.1 35.8 247.5 18.4 496.3-74.84 730-95.19 238.5-247.28 442.8-383.92 658-296.84 467.6-337.32 980.8-307.85 1522.4 30.91 565.7 95.89 1131.7 176.13 1692.2 162.38 1135.9 407.21 2259.9 731.27 3360.7 162.18 551.2 353.75 1090.6 544.39 1632.3 94.91 269.6 205.58 532.8 319.62 794.8 60.11 137.9 121.71 275 184.26 411.9-23.08-193.3-23.08-391.8-34.37-583.8-16.19-275.3-36.79-550-55.68-825-38.49-558.1-72.84-1116.7-103.5-1675.3-108.68-1992-188.65-3985.7-182.79-5980.9 2.97-997.7 23.33-1995.4 66.26-2992.1 20.13-469.4 59.1-938.3 94.32-1407.1l7.49-100.4c31.15-420.7 68.44-842.4 132.44-1259.5-18.95-42.7-35.39-86-47.6-130.4l-4.38-16.8 3.19.5c-2.94-13-3.92-26-3.19-38.7Zm1118.17-1714.3c2.67-11.5 19.11-10.6 22.05 0 72.86 245.3 47.1 515.2-15.68 761.9-33.85 133.7-81.93 263.5-140.07 388.6l-20.35 43.8c-49.81 106.6-105.9 216.3-202.92 282.7-40.45 27.8-112.84 29.5-153.32 0l-20.64-15.6c-3.4-2.7-6.75-5.4-10.02-8.1-37.76-31.7-56.43-101.6-39.01-147.7 44.89-119 146.72-206.3 217.11-312.3 62.33-94.2 117.53-193.6 163.38-296.9 98.86-223.4 143.26-460.7 199.47-696.4Z" clip-rule="evenodd"/>
  <path fill="#061308" fill-rule="evenodd" d="M10111.2.393c255.5 4.17 513.1 13.737 769.6 34.835 12-1.227 24.3-2.208 36.2-3.435 482.8-46.39 964.8-4.685 1447.3 15.7 459.7 19.38 945.2 66.973 1357.9 287.489 53.1 28.31 98.1 60.496 136.4 96.361 53.8 7.58 105.1 22.864 151.2 48.548 132.9-26.911 281.2 32.75 312.6 187.276 45.8 226.429 63.2 454.793 35.8 684.433-.7 5.38-1.2 11.04-2 16.93 55.5 213.04 51.8 445.7 5.7 655.81 19.4 265.48 30.5 531.73 32.1 797.53 1.1 183.87 9.2 371.07-7.8 554.39-15.1 161.18-81.3 288.72-185.4 411.13-19.7 23.06-52.8 26.89-80.4 21.3-7.2-1.45-13.4-3.41-19-5.74 62.8 134.9 112.4 278.02 163.3 414.71 80.8 217.35 159.1 438.38 214.7 663.58 112.6 454.06 186.7 916.76 229.9 1382.61 76.1 828.93 104.7 1664.98 119.4 2497.1 14.2 788.45-55.1 1610.75-503.3 2284.85-391.9 589.8-988.7 1017.9-1653.4 1249-378.2 131.7-797 180.5-1196.6 192.5-206.3 6.2-413.2-2.7-618.3-24-199.1-20.9-404.9-18.7-550.4-169.8-39.9-41.4-39.4-126.6 19.6-153.5 112.4-51.3 188.5-56.7 311.7-39.8 102 14 204.4 25 307.2 32.2 220.3 15.4 442.1 15.9 662.4-1 404.9-31.2 819.1-145.8 1186.8-319.4 576.5-272.8 1071.8-719.8 1339.1-1306.3 310.6-680.81 290.6-1469.5 276.1-2201.04-15.9-802.19-45.5-1601.93-115-2401.42-33.8-387.61-86-772.51-133-1158.39-24.7-205.09-57.2-409.22-97.2-611.83-21-107.23-48.4-212.93-70.9-319.4-16.4 2.67-33.1 4.17-50.2 4.88-102.4 3.46-214.2-21.56-290.1-94.42-29.1 19.87-66.1 32.38-110.7 34.59-420.8 20.82-848.2-4.91-1269.7-5.16-423.1-.24-846.3 0-1269.6 1.23-422.8 1.2-846.7 5.15-1269.27-6.13-393.4-10.55-800.04-1.96-1188.27-74.09-130.47 464.63-125.85 975.14 146.15 1390.22 76.84 117.02 14.42 254.89-85.68 327.99-102.35 74.6-286.32 188.99-443.72 200.74-15.26 34.32-30.92 68.47-45.81 102.52-75.13 171.55-142.81 344.18-190.18 525.82-24.41 93.61-45.41 188.77-63.09 284.52 1.45 16.75 2.94 33.48 4.73 50.19 0 1.72.24 3.41.49 5.37.98 6.9 2.2 14.75 2.93 19.16 9.06 48.08 17.85 96.17 27.42 144 22.77 116.53 40.37 234.04 52.88 352.01 22.77 215.9 20.56 496.55-189.48 624.36-112.36 68.44-247 61.33-365.75 15.43-79.78-30.89-147.59-74.55-221.03-117.48-43.58-25.54-89.14-46.37-131.73-72.86-11.73-7.36-22.99-16.19-33.51-25.52-79.56 16.93-157.19 48.58-200.74 70.17-116.79 58.14-219.34 142.28-306.52 238.94-185.28 205.82-240.85 495.78-214.91 764.9 24.21 250.47 122.4 538.2 319.93 704.8 85.93 72.59 193.18 115.05 306.52 113.82 55.79-.49 107.22-12.26 161.08-26.49 53.12-13.98 118.73-9.81 167.69-29.44 72.68-29.19 162.3 59.86 132.68 132.96-22.3 54.95-35.01 103.53-62.94 146.46 202.72 331.67 424.75 652.99 660.96 961.39 212.98 277.7 463.68 511.3 700.62 765.6 104.55 112.4 148.13 333.7-41.1 381.7-188.74 48.4-329.75-154.7-438.22-278.1-449.18-512-788.72-1099.8-947.62-1763.37-71.7 51.02-153.98 78.74-240.64 90.76-172.59 23.8-347.1-10.3-498.39-97.88-572.86-331.42-711.42-1227.08-443.11-1788.37 64.7-135.14 160.27-255.79 276.77-349.48-9.18-17.59-12.81-38.19-6.91-60.35 10.36-38.78 21.74-77.1 33.69-115.27-13.05-5.82-22.6-17.84-20.78-35.7 10.77-110.39 21.27-220.78 31.82-331.17-3.7-166.82-11.78-333.39-9.82-501.19 2.96-267.4 19.12-534.55 20.1-801.94 3.18-932.7 41.1-1864.42 43.82-2797.12 1.44-456.07 2.42-912.83-9.57-1368.63-.25-6.13-.25-12.02-.47-18.15-9.81-364.79-106.24-852.976 249.7-1088.997 58.51-38.735 131.46-39.226 195.11-14.204 183.11-127.81 412.73-189.41 632.32-224.981 418.36-67.683 840.4-100.335 1261.7-143.266 219.8-22.324 451.14-30.885 672.44-25.979 223.77 4.907 450.46-15.455 675.71-12.02ZM6717.98 8164.09c80.02-76.3 199.51-58.66 297.67-40.48 136.6 25.27 269.28 85.12 384.34 161.91 123.87 82.67 276.87 197.23 301.35 353.99 22.28 144-120.69 302.73-267.81 206.32-136.36-89.54-202.7-253.66-319.96-366.02-57.55-54.95-119.73-103.28-185.55-147.46-29.87-20.09-59.25-42.42-91.8-57.87-3.19-1.5-137.34-45.14-111.39 12.51 8.81 19.14-14.2 40.48-30.6 23.55-46.51-47.34-20.56-104.26 23.75-146.45Z" clip-rule="evenodd"/>
  <path fill="#061308" fill-rule="evenodd" d="M13163.3 10029.1c-81 105.9-227.5 187-391.7 225.7-156.4 37-329.3 35.5-478.5-21.4l-12.8-5.1c-111.6-46.3-218.6-139.9-259.3-237.49-16.2-38.81-21.6-78.26-10.6-115.07 10-33.12 33.3-63.6 72.2-89.78 12.2-8.22 28.5-8.82 44.1-6.07 19.4 3.41 38.5 12.46 50 24.68 63.8 67.88 156.4 134.05 266 132.93 84.6-.87 153.6-34.27 220.6-72.01l47.1-26.95c45.4-25.91 91.4-50.25 143.5-61.37 93.3-19.92 206.4 16.47 275.4 76.51 30 26.18 51.9 56.96 57.8 90.1 5 27.84-2 56.92-23.8 85.32Zm-484.9-1851.01c185.2 112.6 467.5 375.17 268.2 654.32-234.6 246.14-572.3-36.07-738.7-163.71-154.4-98.92-327.8 155.49-184.6 271 1202.7 890.39 1690.7-732.17 748.8-894-103.7-17.84-142.2 97.56-93.7 132.39Zm-2089.9-1730.62 53.2-14.59 54.3-14.65 36.7-9.7c252-65.98 530-124.04 780-95.69 91.2 10.35 165.1 61.65 178.1 157.15 10.8 80.59-41.3 184.55-129.9 198.88-293.6 47.49-594.1 32.09-889 81.05-146.9 24.36-292.6 54.61-439 81.87-111.2 20.75-226.2 28.04-338.37 44.82l25.79 3.58c9.02 1.22 6.77 16.41-2.14 15.8-36.98-3.7-74.02-4.27-111.12-1.68l-15.9 1.31c-24.22 3.41-38.49-25.49-16.91-40.16 136.72-92.76 252.75-193.29 405.85-261.66 132.4-59.12 268.6-107.86 408.4-146.33Zm2294.7-142.25c193.8-195.92 605.9-120.63 836.5-31.01 131.5 51.17 256.7 115.86 360.9 212.64l10.1 9.52 15.7 15.05c70.3 68.87 148.8 163.63 137.6 262.92-1.7 15.13-9.9 32.43-27 35.47-92.4 16.36-183.1-32.36-268.3-61.67l-56.5-19.38c-84.8-28.89-170.2-56.49-257.6-76.42-108.7-24.73-219.6-39.03-331.2-37.61-112.9 1.48-234.1 33.32-341.5-11.48-119.9-49.92-182-193.58-78.7-298.03Zm-1914.6 1580.03c-49.5 50.5-114.8 78.99-198.4 62.04-65.3-13.23-189.6-78.9-289-180.04-67.9-69.18-124.7-155.64-140.2-255.79-3.6-23.26-15.9-38.17-32.1-47.56-12.8-7.41-29.7-11.14-48.1-9.28-15.6 1.58-32.2 7.23-45 14.73-24.3 14.25-34.3 34.48-36.3 49.59-19.6 145.81 36.8 290.49 124.6 412.47 118.4 164.63 292.4 285.27 394.7 313.5 175 48.35 359.4 9.86 495.4-111.94 108.7-97.39 164.4-224.27 216.1-354.75l10-25.29c11.6-29.6 23.2-58.99 35.4-88.07 24.5-58.26 16.6-108.62-7.1-147.88-26.3-43.48-74.9-74.09-129-83.5-50-8.69-103.5.82-145.8 31.36-35.6 25.8-64.4 66.67-74.6 127.12-16.7 98.29-55.2 211.06-123.2 285.47l-7.4 7.82Zm3000.8-568.88c-40.8-21.25-72.7-27.65-117.9-14.1-25 7.51-49.7 21.91-69.1 41.27-19.2 19.18-33 43.03-38.4 69.5-13.2 65.31-49 126.45-99.9 166.3-43.5 34.07-98.5 52.12-159.4 41.93-65.7-10.97-128.4-53.14-171.5-102.86-12.1-13.87-21.9-29.3-31.4-44.92l-5.7-9.38c-21.3-35.1-42-67.73-71.3-93.5-11.1-9.81-27.8-16.6-44.1-16.6-6.5 0-13.2 1.07-19.6 3.06-65.5 65.69-78 115.52-75.9 164.95 2.2 51.83 22.6 104.31 55.6 153.27 77.5 114.86 224.6 209.03 323.8 230.36 135.9 29.21 270.9-5.86 379.1-81.77 111.4-78.11 193.9-199.38 219.6-336.05 6.2-32.92 3.6-68.45-8.9-99.25-12.3-30.1-33.6-55.88-65-72.21Z" clip-rule="evenodd"/>
  <path fill="#061308" fill-rule="evenodd" d="M12705.4 9133.87c-272.8-122.88-762.7-15.66-940.6 26.98-413.5 99.16-829.4 313.44-958 649.16-144.9 378.39 144.2 497.49 186.7 477.99 286.2 20.2 627.1-159.8 927.1-206.2 243.5-38 500.3-71.2 728.5-200.6 166.5 91.63 542.8 141.2 846.4 221.3 258.6 68.2 370.6 216.1 610.3 184.6 287.4-37.6 169.8-641.94-150.5-886.74-350.4-267.92-943.2-376.57-1249.9-266.49Zm540.2 2583.83c-238.7 58.2-254.8-465-281.5-649.8-20.9-144.4-138.7-516.7-437.4-500.7-298.7 16.1-411 328.1-395.8 522.1 9.8 125.8 125.8 763.2-244.4 843.8-235.9-.8-508.9-16.7-757-62.5-292.1-66.1-671.8-297.7-772.1 158.4-36.1 164.1 1250.3 651.7 1821.1 695.8 578.9 117.3 1256.3-63.1 1668.4-505.9 93.8-100.8 357.9-519 376.7-621.4 39.5-215.3-52-353.8-318.4-277.9-188.1 100.4-506.1 360.7-659.6 398.1Z" clip-rule="evenodd"/>
</svg>